<svg width="50" height="51" viewBox="0 0 50 51" fill="none" xmlns="http://www.w3.org/2000/svg">
<path fill-rule="evenodd" clip-rule="evenodd" d="M8.65535 44.1707C7.81456 43.4543 7.81939 42.1811 8.60044 41.4001L14.5547 35.4458C15.3357 34.6648 16.5944 34.68 17.4881 35.3292C19.5751 36.8451 22.1432 37.7392 24.9201 37.7392C31.9116 37.7392 37.5793 32.0715 37.5793 25.0799C37.5793 18.0884 31.9116 12.4206 24.9201 12.4206C22.1431 12.4206 19.5749 13.3148 17.4878 14.8309C16.5941 15.4801 15.3354 15.4953 14.5543 14.7143L8.60044 8.76039C7.81939 7.97935 7.81456 6.70611 8.65535 5.98976C11.9054 3.22069 15.8181 1.31969 20.0275 0.482399C24.8925 -0.485307 29.9351 0.0113555 34.5179 1.90958C39.1006 3.80781 43.0175 7.02234 45.7733 11.1467C48.5291 15.271 50 20.1199 50 25.0802C50 30.0405 48.5291 34.8894 45.7733 39.0138C43.0175 43.1381 39.1006 46.3527 34.5179 48.2509C29.9351 50.1491 24.8924 50.6458 20.0275 49.6781C15.8181 48.8408 11.9054 46.9398 8.65535 44.1707Z" fill="#29323B"/>
<path d="M16.4108 23.6309L5.90241 13.0083C4.98091 12.0767 3.42352 12.2695 2.84531 13.4453C-1.74975 22.7896 -0.0257758 30.9131 2.74225 36.5707C3.31315 37.7376 4.85169 37.9285 5.77324 37.0129L16.3986 26.4563C17.181 25.6789 17.1865 24.415 16.4108 23.6309Z" fill="url(#paint0_radial_32_194)"/>
<defs>
<radialGradient id="paint0_radial_32_194" cx="0" cy="0" r="1" gradientUnits="userSpaceOnUse" gradientTransform="translate(-5.28466 32.6632) rotate(-52.6323) scale(23.3668 24.8706)">
<stop stop-color="#F58835"/>
<stop offset="1" stop-color="#FAA53B"/>
</radialGradient>
</defs>
</svg>
